# AST/ASF file generated using VICON BodyLanguage
# -----------------------------------------------
:version 1.10
:name VICON
:units
  mass 1.0
  length 0.45
  angle deg
:documentation
   .ast/.asf automatically generated from VICON data using
   VICON BodyBuilder and BodyLanguage model FoxedUp or BRILLIANT.MOD
:root
   order TX TY TZ RX RY RZ
   axis XYZ
   position 0 0 0  
   orientation 0 -0 0 
:bonedata
  begin
     id 1 
     name lhipjoint
     direction 0.500677 -0.737119 0.453848 
     length 2.34727 
     axis 0 -0 0  XYZ
  end
  begin
     id 2 
     name lfemur
     direction 0.34202 -0.939693 0  
     length 7.53653  
     axis 0 -0 20  XYZ
    dof rx ry rz
    limits (-160.0 20.0)
           (-70.0 70.0)
           (-60.0 70.0)
  end
  begin
     id 3 
     name ltibia
     direction 0.34202 -0.939693 0   
     length 6.85572   
     axis 0 -0 20   XYZ
    dof rx
    limits (-10.0 170.0)
  end
  begin
     id 4 
     name lfoot
     direction 0.155313 -0.426718 0.890949   
     length 2.18324   
     axis -90 -1.13533e-015 20   XYZ
    dof rx rz
    limits (-45.0 90.0)
           (-70.0 20.0)
  end
  begin
     id 5 
     name ltoes
     direction 1.53474e-011 -4.21647e-011 1   
     length 1.06748   
     axis -90 -1.13533e-015 20   XYZ
    dof rx
    limits (-90.0 20.0)
  end
  begin
     id 6 
     name rhipjoint
     direction -0.632471 -0.659587 0.406111   
     length 2.62319  
     axis 0 -0 0  XYZ 
  end
  begin
     id 7 
     name rfemur
     direction -0.34202 -0.939693 0   
     length 7.21735   
     axis 0 -0 -20   XYZ
    dof rx ry rz
    limits (-160.0 20.0)
           (-70.0 70.0)
           (-70.0 60.0)
  end
  begin
     id 8 
     name rtibia
     direction -0.34202 -0.939693 0   
     length 7.02558   
     axis 0 -0 -20   XYZ
    dof rx
    limits (-10.0 170.0)
 end
 begin
     id 9 
     name rfoot
     direction -0.16057 -0.441164 0.882945   
     length 2.10014  
     axis -90 1.13533e-015 -20   XYZ
    dof rx rz
    limits (-45.0 90.0)
           (-20.0 70.0)
  end
  begin
     id 10 
     name rtoes
     direction -1.53553e-011 -4.2192e-011 1   
     length 1.02554   
     axis -90 1.13533e-015 -20   XYZ
    dof rx
    limits (-90.0 20.0)
  end
  begin
     id 11 
     name lowerback
     direction 0.0401429 0.998861 -0.0258085   
     length 1.80848   
     axis 0 -0 0   XYZ
    dof rx ry rz
    limits (-20.0 45.0)
           (-30.0 30.0)
           (-30.0 30.0)
  end
  begin
     id 12 
     name upperback
     direction -0.0130978 0.999914 -0.000352645   
     length 1.8116   
     axis 0 -0 0   XYZ
    dof rx ry rz
    limits (-20.0 45.0)
           (-30.0 30.0)
           (-30.0 30.0)
  end
  begin
     id 13 
     name thorax
     direction -0.0300198 0.999453 0.0138573   
     length 1.81778   
     axis 0 -0 0   XYZ
    dof rx ry rz
    limits (-20.0 45.0)
           (-30.0 30.0)
           (-30.0 30.0)
  end
  begin
     id 14 
     name lowerneck
     direction -0.0401726 0.999191 -0.00173647   
     length 2.10594   
     axis 0 -0 0   XYZ
    dof rx ry rz
    limits (-20.0 45.0)
           (-30.0 30.0)
           (-30.0 30.0)
  end
  begin
     id 15 
     name upperneck
     direction 0.0119835 0.998501 0.0534085   
     length 2.07325   
     axis 0 -0 0   XYZ
    dof rx ry rz
    limits (-20.0 45.0)
           (-30.0 30.0)
           (-30.0 30.0)
  end
  begin
     id 16
     name head
     direction 0.00628309 0.999826 0.0175921  
     length 2.15096  
     axis 0 -0 0   XYZ
    dof rx ry rz
    limits (-20.0 45.0)
           (-30.0 30.0)
           (-30.0 30.0)
  end
  begin
     id 17 
     name lclavicle
     direction 0.895501 0.429681 -0.115981  
     length 4.18092  
     axis 0 -0 0   XYZ
    dof ry rz
    limits (-20.0 10.0)
           (0.0 20.0)
  end
  begin
     id 18 
     name lhumerus
     direction 1 -4.48961e-011 -3.38433e-028   
     length 5.77237   
     axis 180 -30 -90   XYZ
    dof rx ry rz
    limits (-60.0 90.0)
           (-90.0 90.0)
           (-90.0 90.0)
  end
  begin
     id 19
     name lradius
     direction 1 -4.4901e-011 1.11983e-026   
     length 2.91878   
     axis 180 -30 -90   XYZ
    dof rx
    limits (-10.0 170.0)
  end
  begin
     id 20
     name lwrist
     direction 1 -4.48934e-011 1.88176e-026   
     length 1.45939   
     axis -1.23311e-014 90 90   XYZ
    dof ry
    limits (-180.0 0.0)
 end
  begin
     id 21 
     name lhand
     direction 1 -4.4895e-011 3.76352e-026   
     length 1.06566   
     axis -2.40147e-014 90 90   XYZ
    dof rx rz
    limits (-90.0 90.0)
           (-45.0 45.0)
  end
  begin
     id 22 
     name lfingers
     direction 1 -4.49005e-011 7.52705e-026   
     length 0.859162   
     axis -4.80295e-014 90 90   XYZ
    dof rx
    limits (0.0 90.0)
  end
  begin
     id 23
     name lthumb
     direction 0.707107 -6.34885e-011 0.707107   
     length 1.23359   
     axis -90 45 -9.86935e-015   XYZ
    dof rx rz
    limits (-45.0 45.0)
           (-45.0 45.0)
  end
  begin
     id 24 
     name rclavicle
     direction -0.91006 0.40451 -0.0903492   
     length 4.23293  
     axis 0 -0 0   XYZ 
    dof ry rz
    limits (-10.0 20.0)
           (-20.0 0.0)
  end
  begin
     id 25 
     name rhumerus
     direction -1 -4.4897e-011 1.7415e-027  
     length 5.49854   
     axis 180 30 90   XYZ
    dof rx ry rz
    limits (-90.0 60.0)
           (-90.0 90.0)
           (-90.0 90.0)
  end
  begin
     id 26 
     name rradius
     direction -1 -4.48963e-011 1.21259e-026   
     length 3.1186   
     axis 180 30 90   XYZ
    dof rx
    limits (-10.0 170.0)
  end
  begin
     id 27 
     name rwrist
     direction -1 -4.48967e-011 1.88176e-026   
     length 1.5593   
     axis -1.23311e-014 -90 -90   XYZ
    dof ry
    limits (-180.0 0.0)
  end
  begin
     id 28
     name rhand
     direction -1 -4.4895e-011 3.76352e-026   
     length 0.71207   
     axis -2.40147e-014 -90 -90   XYZ
    dof rx rz
    limits (-90.0 90.0)
           (-45.0 45.0)
  end
  begin
     id 29
     name rfingers
     direction -1 -4.49005e-011 7.52705e-026   
     length 0.574089   
     axis -4.80295e-014 -90 -90   XYZ
    dof rx
    limits (0.0 90.0)
  end
  begin
     id 30
     name rthumb
     direction -0.707107 -6.34982e-011 0.707107   
     length 0.824281   
     axis -90 -45 9.86935e-015   XYZ
    dof rx rz
    limits (-45.0 45.0)
           (-45.0 45.0)
  end
:hierarchy
  begin
    root lhipjoint rhipjoint lowerback
    lhipjoint lfemur
    lfemur ltibia
    ltibia lfoot
    lfoot ltoes
    rhipjoint rfemur
    rfemur rtibia
    rtibia rfoot
    rfoot rtoes
    lowerback upperback
    upperback thorax
    thorax lowerneck lclavicle rclavicle
    lowerneck upperneck
    upperneck head
    lclavicle lhumerus
    lhumerus lradius
    lradius lwrist
    lwrist lhand lthumb
    lhand lfingers
    rclavicle rhumerus
    rhumerus rradius
    rradius rwrist
    rwrist rhand rthumb
    rhand rfingers
  end

#!OML:ASF C:\ViconDB\ViconDB\414\Spring2016\042216\male.ASF
:FULLY-SPECIFIED
:DEGREES
102
root -18.3198 17.2174 14.9184 -192.12 75.2639 -200.708
lowerback 3.10344 -3.16754 5.94778
upperback 1.32072 -4.00989 0.492307
thorax -0.748851 -1.98037 -2.65601
lowerneck 9.19081 7.59711 1.32794
upperneck -17.5201 11.4518 2.29898
head -6.93466 5.37247 -0.485938
rclavicle 8.54774e-015 5.88403e-014
rhumerus -27.8477 -8.45783 -83.2504
rradius 32.3456
rwrist 27.6368
rhand 9.77425 -21.8536
rfingers 7.12502
rthumb 34.9122 -48.4301
lclavicle 8.54774e-015 5.88403e-014
lhumerus -33.4784 10.8363 86.3584
lradius 37.9985
lwrist -6.60359
lhand -19.7783 14.1971
lfingers 7.12502
lthumb 6.55384 44.0757
rfemur -20.2094 7.67739 13.5396
rtibia 30.5107
rfoot -25.8971 -5.87784
rtoes -22.2699
lfemur -19.0666 -0.764427 -22.6499
ltibia 36.3553
lfoot -30.0591 14.1669
ltoes -15.8099
103
root -18.2968 17.2143 14.9206 -191.394 75.3115 -199.88
lowerback 3.30757 -3.1471 5.89732
upperback 1.30619 -3.96772 0.523402
thorax -0.868654 -1.96241 -2.58607
lowerneck 9.10396 7.59166 1.14369
upperneck -17.3748 11.3772 2.21201
head -6.87646 5.35791 -0.469796
rclavicle 9.85972e-014 -6.36111e-014
rhumerus -28.1919 -7.85112 -83.4032
rradius 32.4068
rwrist 28.2248
rhand 9.65779 -21.5863
rfingers 7.12502
rthumb 34.8017 -48.1884
lclavicle 9.85972e-014 -6.36111e-014
lhumerus -33.5445 11.5432 85.912
lradius 37.9184
lwrist -6.72205
lhand -20.3375 13.6731
lfingers 7.12502
lthumb 6.014 43.5677
rfemur -19.9295 7.49682 13.8562
rtibia 30.353
rfoot -25.9708 -6.09697
rtoes -22.5077
lfemur -19.4011 -0.674049 -22.5829
ltibia 36.9812
lfoot -30.4217 14.1982
ltoes -15.3222
104
root -18.2752 17.2089 14.9211 -190.63 75.3302 -199.03
lowerback 3.41087 -3.11469 5.97926
upperback 1.37731 -3.91682 0.455041
thorax -0.858541 -1.93476 -2.70105
lowerneck 8.97154 7.56425 1.0422
upperneck -17.3721 11.3052 2.13226
head -6.85243 5.33917 -0.466599
rclavicle -4.1546e-014 5.64548e-014
rhumerus -28.2828 -7.81007 -83.6136
rradius 32.3121
rwrist 28.5742
rhand 9.56738 -21.418
rfingers 7.12502
rthumb 34.7159 -48.0399
lclavicle -4.1546e-014 5.64548e-014
lhumerus -33.4578 11.9929 85.4037
lradius 37.8983
lwrist -6.71502
lhand -20.8472 13.2462
lfingers 7.12502
lthumb 5.52187 43.1543
rfemur -19.754 7.30472 14.1531
rtibia 30.3791
rfoot -26.1862 -6.10263
rtoes -22.5418
lfemur -19.6929 -0.568013 -22.5396
ltibia 37.5069
lfoot -30.6423 14.2971
ltoes -15.1429
105
root -18.2514 17.2064 14.9227 -189.358 75.3598 -197.764
lowerback 3.43352 -3.12123 6.07959
upperback 1.38901 -3.92034 0.459938
thorax -0.865618 -1.93605 -2.75051
lowerneck 8.90273 7.57183 0.965134
upperneck -17.3494 11.2694 1.98646
head -6.82772 5.33995 -0.492907
rclavicle -7.7526e-015 1.59028e-014
rhumerus -28.4538 -7.20226 -83.91
rradius 32.3255
rwrist 28.4936
rhand 9.53956 -21.4037
rfingers 7.12502
rthumb 34.6895 -48.0317
lclavicle -7.7526e-015 1.59028e-014
lhumerus -33.5209 12.7422 84.7972
lradius 37.8091
lwrist -7.03167
lhand -21.3939 12.1393
lfingers 7.12502
lthumb 4.99401 42.0604
rfemur -19.684 6.72308 14.5936
rtibia 30.3338
rfoot -26.3969 -5.82361
rtoes -22.2181
lfemur -20.1598 -0.471128 -22.3349
ltibia 38.0601
lfoot -30.7003 14.5085
ltoes -14.6575
106
root -18.2234 17.1892 14.9193 -189.482 75.3193 -197.749
lowerback 3.70373 -3.07448 5.90279
upperback 1.34304 -3.84515 0.379506
thorax -1.0513 -1.90518 -2.72282
lowerneck 8.89806 7.54624 0.772466
upperneck -17.2188 11.1801 1.95459
head -6.79269 5.31138 -0.461496
rclavicle -6.16232e-015 -2.38542e-014
rhumerus -28.8517 -6.88373 -83.9501
rradius 32.3785
rwrist 28.6594
rhand 9.50065 -21.3981
rfingers 7.12502
rthumb 34.6526 -48.0346
lclavicle -6.16232e-015 -2.38542e-014
lhumerus -33.7105 13.1397 84.3629
lradius 37.9017
lwrist -6.80574
lhand -22.1536 11.6377
lfingers 7.12502
lthumb 4.26048 41.5748
rfemur -19.3877 6.09665 14.6788
rtibia 30.2932
rfoot -26.5952 -5.49802
rtoes -22.6155
lfemur -20.2797 -0.327489 -22.562
ltibia 38.5773
lfoot -30.9036 14.8341
ltoes -15.2305
107
root -18.1958 17.1899 14.9174 -188.476 75.3651 -196.747
lowerback 3.74076 -3.02859 5.91284
upperback 1.36083 -3.78155 0.370568
thorax -1.04904 -1.87291 -2.73996
lowerneck 8.75886 7.52149 0.745839
upperneck -17.1501 11.0911 1.73935
head -6.73358 5.2911 -0.507902
rclavicle -2.66371e-014 -1.27222e-014
rhumerus -29.0101 -6.5198 -84.0987
rradius 32.4278
rwrist 28.8872
rhand 9.53463 -21.405
rfingers 7.12502
rthumb 34.6848 -48.0341
lclavicle -2.66371e-014 -1.27222e-014
lhumerus -33.8131 13.8408 83.7639
lradius 38.0137
lwrist -7.16026
lhand -22.8878 10.9282
lfingers 7.12502
lthumb 3.55147 40.8783
rfemur -19.2523 6.12659 15.0054
rtibia 30.198
rfoot -26.7827 -5.67818
rtoes -22.7805
lfemur -20.7192 -0.447989 -22.4003
ltibia 39.1291
lfoot -31.144 15.1052
ltoes -15.0362
108
root -18.1673 17.1952 14.9139 -187.707 75.3772 -195.88
lowerback 3.86958 -3.00059 6.02002
upperback 1.42346 -3.73322 0.292498
thorax -1.06372 -1.8474 -2.87778
lowerneck 8.66966 7.49515 0.651303
upperneck -17.2251 11.0114 1.56428
head -6.73597 5.27361 -0.538943
rclavicle -9.14409e-015 1.59028e-015
rhumerus -29.1552 -5.9626 -84.3415
rradius 32.511
rwrist 28.8038
rhand 9.23486 -21.5721
rfingers 7.12502
rthumb 34.4003 -48.2661
lclavicle -9.14409e-015 1.59028e-015
lhumerus -33.8922 14.6223 83.0736
lradius 38.1739
lwrist -7.58709
lhand -23.8208 10.4571
lfingers 7.12502
lthumb 2.65046 40.4204
rfemur -18.9898 6.10753 15.3009
rtibia 30.1238
rfoot -26.9118 -5.49289
rtoes -21.7382
lfemur -21.0781 -0.496283 -22.234
ltibia 39.6225
lfoot -31.1445 15.1539
ltoes -13.9208
109
root -18.1372 17.191 14.9101 -187.247 75.3886 -195.341
lowerback 4.06167 -2.96003 5.87275
upperback 1.42583 -3.67089 0.289484
thorax -1.15394 -1.81845 -2.79288
lowerneck 8.52604 7.50736 0.493236
upperneck -17.1519 10.9548 1.35673
head -6.68291 5.27558 -0.565293
rclavicle -1.23246e-014 2.22639e-014
rhumerus -29.3559 -5.36027 -84.3871
rradius 32.6068
rwrist 28.9713
rhand 9.12644 -21.6389
rfingers 7.12502
rthumb 34.2973 -48.3562
lclavicle -1.23246e-014 2.22639e-014
lhumerus -34.1316 15.6598 82.3473
lradius 38.4696
lwrist -8.07063
lhand -24.5275 10.5319
lfingers 7.12502
lthumb 1.96794 40.5026
rfemur -18.69 6.00302 15.5208
rtibia 29.9314
rfoot -27.0738 -5.59689
rtoes -22.4369
lfemur -21.4101 -0.512595 -22.2174
ltibia 40.1942
lfoot -31.402 15.4557
ltoes -14.9523
110
root -18.1084 17.1913 14.8994 -187.94 75.3235 -195.958
lowerback 4.30829 -2.98275 5.63027
upperback 1.43263 -3.69932 0.0737741
thorax -1.28653 -1.83679 -2.86549
lowerneck 8.46353 7.54383 0.480929
upperneck -17.1484 10.9664 1.17492
head -6.66046 5.29769 -0.617427
rclavicle 4.87022e-014 -2.14687e-014
rhumerus -29.5079 -4.7546 -84.6097
rradius 32.6142
rwrist 29.383
rhand 9.12611 -21.5369
rfingers 7.12502
rthumb 34.297 -48.2542
lclavicle 4.87022e-014 -2.14687e-014
lhumerus -34.4698 17.2282 81.03
lradius 38.6782
lwrist -9.5786
lhand -24.9179 9.52122
lfingers 7.12502
lthumb 1.59083 39.495
rfemur -18.3565 6.1222 15.3427
rtibia 29.7606
rfoot -27.229 -5.7444
rtoes -22.1587
lfemur -21.7189 -0.670048 -22.4798
ltibia 40.7311
lfoot -31.6464 15.503
ltoes -14.5404
111
root -18.0744 17.1864 14.9001 -185.974 75.4092 -193.942
lowerback 4.44101 -2.95964 5.78312
upperback 1.42188 -3.64842 0.201728
thorax -1.36808 -1.81268 -2.81486
lowerneck 8.32467 7.53444 0.164821
upperneck -17.1683 10.8784 1.03537
head -6.65107 5.28711 -0.599055
rclavicle -4.83047e-014 4.85035e-014
rhumerus -29.6505 -3.76637 -84.6411
rradius 32.6669
rwrist 29.5731
rhand 8.8746 -21.502
rfingers 7.12502
rthumb 34.0582 -48.2728
lclavicle -4.83047e-014 4.85035e-014
lhumerus -34.8404 19.3781 79.6174
lradius 38.7786
lwrist -11.7277
lhand -25.1964 7.9088
lfingers 7.12502
lthumb 1.32184 37.8844
rfemur -18.141 6.81203 15.9533
rtibia 29.6179
rfoot -27.3346 -6.42904
rtoes -21.9779
lfemur -22.1731 -0.585079 -21.9468
ltibia 41.302
lfoot -31.6852 15.6018
ltoes -14.0125
112
root -18.0442 17.1831 14.8964 -184.822 75.4035 -192.78
lowerback 4.50219 -2.94045 5.90867
upperback 1.46815 -3.61602 0.0967504
thorax -1.36569 -1.79564 -2.99334
lowerneck 8.03845 7.5738 0.112359
upperneck -17.0595 10.9085 0.977923
head -6.56612 5.31649 -0.594877
rclavicle 3.24019e-014 -3.02153e-014
rhumerus -29.658 -3.15088 -84.8057
rradius 32.694
rwrist 29.9151
rhand 8.61154 -21.3654
rfingers 7.12502
rthumb 33.8083 -48.1916
lclavicle 3.24019e-014 -3.02153e-014
lhumerus -34.989 21.4693 77.8533
lradius 38.7642
lwrist -13.909
lhand -25.6238 6.75275
lfingers 7.12502
lthumb 0.909076 36.7306
rfemur -17.9319 7.54188 16.2758
rtibia 29.4526
rfoot -27.4384 -7.18588
rtoes -21.7712
lfemur -22.6771 -0.820851 -21.6246
ltibia 41.8407
lfoot -31.8595 15.7842
ltoes -14.0302
113
root -18.0131 17.1792 14.8945 -183.567 75.3565 -191.503
lowerback 4.64631 -2.97144 6.00658
upperback 1.46903 -3.64245 0.0693863
thorax -1.45549 -1.81103 -3.06668
lowerneck 7.72948 7.63416 -0.356009
upperneck -16.9627 10.9536 1.16464
head -6.5192 5.3579 -0.452487
rclavicle -1.98785e-015 -5.56597e-015
rhumerus -29.6863 -2.23847 -84.7992
rradius 32.7569
rwrist 30.57
rhand 8.66668 -21.0558
rfingers 7.12502
rthumb 33.8607 -47.8703
lclavicle -1.98785e-015 -5.56597e-015
lhumerus -35.4009 23.4714 76.1391
lradius 38.9814
lwrist -15.3621
lhand -26.5534 5.79304
lfingers 7.12502
lthumb 0.0112751 35.7728
rfemur -17.6563 8.0594 16.6591
rtibia 29.2444
rfoot -27.5628 -7.69126
rtoes -21.8726
lfemur -23.211 -0.875878 -21.2971
ltibia 42.4403
lfoot -32.0346 15.9576
ltoes -14.4687
114
root -17.9699 17.1765 14.8801 -182.976 75.4664 -190.693
lowerback 4.84117 -2.92448 6.03395
upperback 1.52721 -3.56626 0.00833965
thorax -1.50211 -1.77243 -3.14236
lowerneck 7.69661 7.64889 -0.633002
upperneck -17.0627 10.9264 1.08897
head -6.55611 5.36679 -0.43267
rclavicle 7.69297e-014 -1.11319e-014
rhumerus -29.732 -1.49335 -84.6476
rradius 32.813
rwrist 31.0624
rhand 8.37379 -20.7742
rfingers 7.12502
rthumb 33.5823 -47.6497
lclavicle 7.69297e-014 -1.11319e-014
lhumerus -35.773 25.1352 74.4617
lradius 39.125
lwrist -16.3137
lhand -27.6666 5.47554
lfingers 7.12502
lthumb -1.06389 35.4526
rfemur -17.1393 8.54928 16.9704
rtibia 29.0141
rfoot -27.6445 -8.17807
rtoes -20.85
lfemur -23.4068 -0.907997 -21.09
ltibia 43.0495
lfoot -32.2636 16.3409
ltoes -13.7588
115
root -17.9326 17.1672 14.8746 -181.08 75.4499 -188.751
lowerback 4.87315 -2.90724 6.25685
upperback 1.58216 -3.53017 0.0135276
thorax -1.47218 -1.7518 -3.26391
lowerneck 7.39713 7.63676 -0.966864
upperneck -17.0824 10.8789 1.13468
head -6.53141 5.36651 -0.350649
rclavicle 1.07344e-014 -2.70347e-014
rhumerus -29.6189 -0.787613 -84.362
rradius 32.8889
rwrist 31.5843
rhand 8.24562 -20.335
rfingers 7.12502
rthumb 33.4605 -47.2369
lclavicle 1.07344e-014 -2.70347e-014
lhumerus -35.9994 26.5868 72.7343
lradius 39.4071
lwrist -16.6847
lhand -28.702 4.66608
lfingers 7.12502
lthumb -2.06393 34.6358
rfemur -16.8718 9.11819 17.5525
rtibia 28.7861
rfoot -27.7143 -8.88836
rtoes -20.9718
lfemur -23.9788 -0.875081 -20.5287
ltibia 43.7292
lfoot -32.2318 16.6442
ltoes -13.5908
116
root -17.8947 17.1612 14.8659 -179.28 75.3924 -186.82
lowerback 5.06905 -2.90551 6.51104
upperback 1.57159 -3.49873 0.0155296
thorax -1.60377 -1.73985 -3.39577
lowerneck 7.30783 7.64017 -1.17221
upperneck -17.1385 10.8408 1.03343
head -6.5389 5.3696 -0.344881
rclavicle -4.49253e-014 1.98785e-014
rhumerus -29.5601 -0.192493 -83.9182
rradius 32.9584
rwrist 31.8615
rhand 7.59982 -20.0684
rfingers 7.12502
rthumb 32.8465 -47.1009
lclavicle -4.49253e-014 1.98785e-014
lhumerus -36.3117 27.7492 70.9819
lradius 39.5834
lwrist -16.7091
lhand -29.6705 4.48893
lfingers 7.12502
lthumb -2.99922 34.4476
rfemur -16.4541 9.86767 18.1397
rtibia 28.511
rfoot -27.6822 -9.47663
rtoes -20.8054
lfemur -24.5097 -0.820421 -20.0143
ltibia 44.4903
lfoot -32.1645 17.2043
ltoes -14.2214
